<?xml version="1.0" encoding="UTF-8" standalone="no"?>
<!DOCTYPE svg PUBLIC "-//W3C//DTD SVG 1.1//EN" "http://www.w3.org/Graphics/SVG/1.1/DTD/svg11.dtd">
<svg width="100%" height="100%" viewBox="0 0 4000 4000" version="1.1" xmlns="http://www.w3.org/2000/svg" xmlns:xlink="http://www.w3.org/1999/xlink" xml:space="preserve" xmlns:serif="http://www.serif.com/" style="fill-rule:evenodd;clip-rule:evenodd;stroke-linejoin:round;stroke-miterlimit:2;">
    <path d="M218.664,1625.4C219.09,1623.18 218.945,1624.47 218.875,1621.52C222.023,1619.31 228.176,1620.28 232.027,1620.29C244.086,1620.3 256.164,1621.27 268.199,1621.98C315.453,1624.75 362.543,1628.7 409.59,1633.9C548.25,1649.23 685.73,1673.32 821.039,1707.25C863.449,1717.89 906.32,1727.53 947.984,1740.9C965.422,1746.5 986.121,1750.64 1002.09,1759.67C990.238,1783.47 977.426,1806.74 964.273,1829.84C958.285,1840.36 953.629,1853.9 945.359,1862.85C941.359,1867.18 932.465,1871.09 927.191,1873.93C919.699,1874.13 911.504,1868.16 904.758,1865.32C887.555,1858.07 870.23,1851.05 853.125,1843.58C803.691,1821.99 751.777,1804.82 700.707,1787.6C544.199,1734.81 382.145,1702.01 218.965,1678.11C218.242,1660.79 217.055,1642.68 218.664,1625.4Z" style="fill:rgb(214,178,121);"/>
    <path d="M218.516,1777.81C222.191,1752.81 216.145,1726.66 219.957,1701.62C320.086,1715.46 419.008,1738.86 516.27,1766.04C576.441,1782.85 636.461,1800.1 695.102,1821.76C735.648,1836.73 775.027,1854.06 814.977,1870.48C825.73,1874.9 836.781,1878.97 846.996,1884.57C849.574,1885.99 855.945,1888.08 857.426,1890.57C858.574,1892.5 852.047,1894.6 850.941,1895.11C843.051,1898.73 834.02,1902.49 827.086,1907.77C834.32,1915.98 842.988,1921.66 851.754,1928.11C854.941,1930.46 857.828,1933.11 860.891,1935.61C861.57,1936.17 864.77,1937.79 864.52,1938.17C848.176,1947.86 826.621,1951.5 808.539,1956.71C783.477,1963.93 758.855,1973.38 734.125,1981.67C721.73,1985.83 709.078,1988.72 696.586,1992.48C690.973,1994.18 683.574,1998.06 677.695,1997.89C673.582,1997.77 669.285,1993.7 665.844,1991.72C655.473,1985.77 644.98,1980.02 634.52,1974.23C601.855,1956.18 568.176,1940.14 534.578,1923.92C433.395,1875.07 326.402,1840.05 219.605,1806.06C216.137,1800.05 218.27,1784.88 218.516,1777.81Z" style="fill:rgb(203,156,82);"/>
    <path d="M218.531,1895C220.031,1883.44 219.004,1870.99 218.953,1859.34C218.934,1855.08 218.004,1849.02 220.008,1845.22C250.469,1851.54 279.898,1865.02 309.188,1875.3C388.754,1903.23 467.488,1938.39 541.398,1978.93C565.09,1991.92 588.793,2005.02 611.75,2019.28C620.629,2024.8 634.004,2030.69 640.445,2039.09C624.512,2042.63 608.883,2048.42 593.098,2052.68C572.777,2058.15 552.215,2062.76 532.109,2068.99C523.473,2071.66 514.758,2074.34 506.016,2076.64C502.41,2077.59 496.484,2078.53 494.246,2081.57C501.906,2087.2 509.961,2092.57 517.457,2098.44C519.629,2100.13 524.5,2102.58 525.629,2105.02C516.418,2108.73 505.793,2109.68 496.293,2112.85C476.469,2119.48 456.469,2125.57 436.508,2131.79C427.727,2134.53 418.918,2137.26 410.094,2139.84C405.762,2141.1 401.559,2144.17 396.93,2143.83C387.297,2138.73 379.449,2129.3 370.93,2122.53C352.66,2108.02 333.867,2093.88 314.594,2080.73C293.922,2066.62 272.641,2053.41 251.227,2040.45C241.121,2034.34 228.52,2029.51 219.641,2021.72C216.793,2005.86 219.09,1987.6 219.059,1971.47C219.008,1946 217.473,1920.47 218.531,1895Z" style="fill:rgb(190,138,56);"/>
    <path d="M219.996,1536.73C252.395,1536.29 284.684,1534.31 317.133,1534.62C505.797,1536.43 695.098,1553.2 881.625,1581.17C945.934,1590.81 1010.3,1601.2 1073.76,1615.53C1092.43,1619.74 1111.42,1623.36 1129.8,1628.73C1137.12,1630.87 1145.32,1631.73 1152.14,1635.23C1151.35,1636.32 1147.45,1636.53 1146.07,1636.79C1140.07,1637.93 1134.09,1639.01 1128.12,1640.33C1113.06,1643.68 1097.96,1647.28 1082.78,1650.09C1074.43,1651.64 1064.02,1652.05 1056.48,1656.18C1049.21,1660.16 1048.05,1669.73 1045.21,1676.77C1040.52,1688.38 1036.01,1700.23 1030.61,1711.53C1028.42,1716.12 1026.55,1722.08 1023.12,1725.88C946.035,1701.44 867.102,1682.35 788.117,1665.15C703.953,1646.84 619.734,1630.66 534.406,1618.73C430.48,1604.19 324.875,1591.4 219.813,1590.24C218.547,1583.85 219.59,1576.83 219.617,1570.33C219.66,1559.16 219.301,1547.88 219.996,1536.73Z" style="fill:rgb(190,138,56);"/>
    <path d="M1570.9,1649.14C1568.14,1645.81 1563.38,1643.52 1559.59,1641.52C1549.87,1635.72 1538.57,1629.53 1527.82,1626.03C1520.37,1623.23 1512.64,1618.79 1505.56,1615.1C1503.33,1603.11 1504.15,1589.29 1497.82,1578.47C1492.16,1575.27 1483.65,1578.18 1477.74,1579.55C1463.57,1582.82 1449.18,1585.12 1434.93,1588C1391.58,1596.77 1348.18,1605.28 1304.57,1612.64C1293.54,1614.51 1282.52,1616.61 1271.54,1618.71C1264.64,1620.04 1257.52,1622.75 1250.43,1621.33C1228.45,1616.94 1206.9,1608.99 1185.05,1603.81C1146.52,1594.66 1106.99,1588.14 1068.07,1580.81C922.395,1553.38 773.402,1535.47 625.477,1526.64C535.664,1521.29 445.484,1517.55 355.457,1518.34C326.219,1518.6 297.008,1519.98 267.801,1521.26C252.684,1521.93 236.949,1523.92 221.867,1523.18C220.902,1519.02 220.527,1513.23 222.344,1509.31C251.574,1502.21 282.242,1499 311.926,1494.17C396.457,1480.39 481.285,1472.59 566.695,1467.3C634.477,1463.1 702.52,1460.69 770.457,1462.02C849.211,1463.57 927.605,1470 1006.03,1476.87C1140.44,1488.64 1276.07,1508.13 1407.09,1540.87C1496.76,1563.28 1586.23,1584.39 1674.01,1613.69C1694.74,1620.61 1715.45,1627.56 1735.98,1635.09C1739.58,1636.41 1753.55,1640.07 1754.21,1643.81C1727.29,1653.12 1699.12,1659.07 1671.95,1667.73C1663.24,1670.5 1654.36,1672.5 1645.54,1674.87C1640.97,1676.1 1635.74,1678.28 1630.93,1677.55C1609.12,1674.23 1591.61,1655.07 1570.9,1649.14Z" style="fill:rgb(203,156,82);"/>
    <path d="M445.574,2158.47C506.922,2137.37 570.336,2123.5 632.641,2105.47C653.582,2099.41 675.012,2094.86 695.844,2088.46C702.258,2086.48 709.25,2085.4 715.895,2084.61C718.402,2084.32 720.809,2083.62 723.227,2082.92C724.207,2082.64 727.129,2082.05 726.117,2081.9C715.234,2080.33 704.348,2082.05 693.477,2082.73C668.055,2084.31 642.777,2087.41 617.355,2088.95C605.449,2089.68 592.371,2091.14 580.555,2089.68C581.809,2085.62 591.746,2084.29 595.711,2083.19C610.563,2079.03 625.496,2075.38 640.566,2072.02C672.945,2064.8 705.668,2059.17 737.953,2051.54C769.336,2044.12 800.203,2034.53 831.637,2027.16C849.664,2022.94 867.734,2019.24 885.512,2014.09C888.625,2013.19 900.719,2011.72 901.59,2008.21C893.289,2001.9 875.367,2004.54 865.539,2004.06C831.492,2002.43 799.34,2005.57 765.613,2009.35C756.516,2010.37 747.418,2010.57 738.316,2011.43C733.496,2011.88 726.867,2013.84 722.32,2011.74C727.746,2008.35 734.418,2007.56 740.367,2005.29C762.211,1996.94 785.504,1992.63 808.215,1987.27C828.254,1982.53 847.578,1975.33 867.453,1970C886.984,1964.77 907.02,1961.39 926.273,1955.12C932.742,1953.01 938.27,1949.11 944.547,1946.94C943.539,1955.59 947.051,1967.07 949.039,1975.47C955.434,2002.5 967.277,2024.6 984.418,2046.36C990.988,2054.7 999.797,2061.45 1006.1,2069.89C997.449,2071.68 987.855,2070.55 979,2071.93C951.734,2076.19 923.98,2077.77 896.656,2081.73C854.344,2087.88 811.855,2092.73 769.586,2099.3C723.895,2106.4 678.535,2115.63 633.004,2123.73C591.469,2131.11 549.492,2138.71 508.465,2148.54C494.77,2151.82 480.797,2153.49 466.992,2156.15C461.66,2157.18 456.598,2159.01 451.168,2159.62C449.605,2159.8 444.285,2160.85 445.574,2158.47Z" style="fill:rgb(203,156,82);"/>
    <path d="M884.871,1911.7C903.199,1903.24 924.125,1898.78 944.043,1895.66C943.207,1910.48 943.906,1925.72 944.398,1940.57C942.266,1940.84 940.16,1940.7 938.016,1940.66C933.543,1937.43 931.586,1932.03 926.527,1929.36C912.875,1922.16 897.227,1920.5 883.438,1914.17C883.914,1913.35 884.395,1912.53 884.871,1911.7Z" style="fill:rgb(195,148,99);"/>
    <path d="M1149.72,1673.35C1149.23,1688.01 1156.44,1704.43 1158.62,1719.07C1164.04,1755.5 1168.42,1792.01 1174.2,1828.41C1176.26,1841.41 1178.27,1854.41 1179.98,1867.47C1180.74,1873.26 1180.25,1881.55 1182.98,1886.76C1188.04,1896.43 1199.69,1905.32 1206.96,1913.54C1224.96,1933.89 1243.81,1953.54 1261.61,1974.07C1265.9,1979.02 1264.71,1984.83 1264.56,1990.93C1264.25,2002.22 1263.71,2013.5 1263.28,2024.78C1263.17,2027.62 1261.21,2041.11 1265.36,2040.59C1258.28,2046.66 1247.5,2047.46 1238.79,2048.73C1217.36,2051.87 1195.35,2052.25 1173.77,2054.43C1153.67,2056.46 1133.51,2058.27 1113.41,2060.42C1100.23,2061.83 1086.03,2065.2 1072.84,2062.4C1063.8,2060.48 1055.14,2056.37 1046.93,2052.26C1029.66,2043.61 1014.08,2032.75 1002.64,2016.93C993.871,2004.8 989.191,1990.09 985.109,1975.85C977.066,1947.82 972.57,1917.66 973.379,1888.41C973.582,1881.07 978.844,1874.68 982.121,1868.36C989.324,1854.48 996.91,1840.73 1004.53,1827.07C1020.77,1797.95 1037.59,1769.19 1053.48,1739.88C1063.28,1721.8 1073.35,1704.66 1079.25,1684.9C1096.34,1681.96 1113.4,1678.75 1130.51,1675.91C1134.99,1675.16 1145.81,1671.49 1149.72,1673.35Z" style="fill:rgb(255,196,0);"/>
    <path d="M1149.72,1673.35C1154.82,1670.07 1165.39,1666.35 1171.13,1669.37C1170.58,1675.56 1172.1,1682.38 1172.71,1688.59C1173.79,1699.46 1174.05,1711.94 1177.78,1722.28C1208.55,1719.07 1239.69,1710.93 1269.99,1704.7C1305.25,1697.47 1340.9,1690.48 1375.88,1682.08C1397.39,1676.91 1419.67,1667.32 1441.52,1664.59C1449.32,1668.84 1460.15,1672.91 1466.19,1679.62C1468.57,1682.25 1471.18,1689.55 1466.71,1690.95C1455.98,1691.13 1445.32,1689.83 1434.65,1688.97C1431.5,1688.72 1426.11,1687.86 1423.69,1690.11C1423.44,1691.97 1432.67,1692.28 1434.25,1692.69C1440.85,1694.38 1447.03,1698.07 1453.73,1699.37C1458.07,1700.21 1462.81,1699.27 1467.06,1700.48C1469.2,1701.09 1468.21,1703.22 1468.02,1704.88C1467.16,1717.91 1466.31,1730.96 1465.6,1744C1461.91,1750.16 1450.91,1750.97 1443.92,1752.72C1432.18,1755.65 1415.61,1760.33 1406.51,1768.47C1407.41,1772.81 1414.05,1777.21 1417.71,1779.58C1422.71,1784.32 1429.52,1789.65 1435.85,1792.43C1440.65,1794.54 1446.75,1794.54 1450.64,1798.34C1454.78,1802.39 1456.03,1809.14 1459.23,1813.88C1461.78,1813.84 1464.44,1813.22 1466.72,1812.06C1500.38,1809.75 1532.64,1793.51 1564.73,1784.44C1642.56,1762.45 1720.43,1740.61 1798.14,1718.18C1824.82,1710.48 1851.29,1702.36 1878.22,1695.51C1886.88,1693.31 1895.62,1689.42 1904.54,1688.52C1906.07,1690.56 1911.18,1697.47 1909.38,1699.71C1867.36,1714.51 1823.53,1724.85 1780.81,1737.69C1687.97,1765.61 1594.59,1791.54 1502.55,1821.86C1508.17,1829.41 1517.26,1834.98 1524.69,1840.63C1538.31,1850.97 1552.2,1860.81 1565.97,1870.92C1572.12,1875.43 1578.62,1879.47 1584.57,1884.23C1585.81,1885.21 1588.75,1886.43 1589.21,1887.96C1576.9,1896.86 1560.69,1901.75 1546.87,1907.88C1520.26,1919.68 1493.47,1931.13 1466.96,1943.15C1417.57,1965.54 1369.1,1990.05 1320.1,2013.32C1301.81,2022 1284.33,2033.51 1265.36,2040.59C1261.21,2041.11 1263.17,2027.62 1263.28,2024.78C1263.71,2013.5 1264.25,2002.22 1264.56,1990.93C1264.71,1984.83 1265.9,1979.02 1261.61,1974.07C1243.81,1953.54 1224.96,1933.89 1206.96,1913.54C1199.69,1905.32 1188.04,1896.43 1182.98,1886.76C1180.25,1881.55 1180.74,1873.26 1179.98,1867.47C1178.27,1854.41 1176.26,1841.41 1174.2,1828.41C1168.42,1792.01 1164.04,1755.5 1158.62,1719.07C1156.44,1704.43 1149.23,1688.01 1149.72,1673.35ZM1185.94,1762.88C1191.76,1794.86 1197.74,1827.82 1201.72,1860.06C1204.78,1861.37 1211.44,1857.13 1214.71,1856C1226.27,1852.02 1238.22,1848.63 1250.02,1845.45C1280.02,1837.35 1310.02,1829.25 1340.07,1821.34C1359.44,1816.25 1379.57,1812.11 1398.4,1805.24C1400.29,1798.64 1398.11,1788.61 1398.08,1781.63C1398,1765.14 1398.68,1748.51 1401.39,1732.23C1402.29,1726.81 1403.34,1721.34 1404.7,1716.02C1404.93,1715.15 1406.27,1710.8 1405.64,1710.24C1382.04,1720.76 1357.45,1724.34 1332.28,1730.03C1295.19,1738.42 1258,1745.68 1221.06,1754.73C1209.43,1757.58 1197.37,1759.33 1185.94,1762.88Z" style="fill:rgb(54,124,43);"/>
    <path d="M1171.13,1669.37C1183.86,1667.68 1196.32,1664.03 1209.01,1661.85C1256.39,1653.69 1303.59,1643.67 1351.19,1636.81C1381.02,1633.01 1410.09,1624.22 1439.95,1620.4C1450.53,1619.04 1464.41,1613.95 1474.32,1618.93C1474.59,1622.45 1476.1,1625.52 1477.37,1628.78C1477.44,1631.02 1476.21,1632.49 1475.57,1634.6C1475.33,1635.71 1473.71,1639.83 1474.68,1640.35C1480.15,1643.27 1488.11,1643.79 1494.06,1646.25C1497.46,1649.01 1501.7,1650.52 1505.4,1652.82C1531.79,1669.22 1559.89,1680.89 1587.86,1694.25C1598.75,1699.47 1610.92,1711.82 1623.26,1712.44C1634.67,1713.02 1647.21,1707.59 1658.17,1704.93C1685.04,1698.39 1712,1691.17 1738.48,1683.19C1757.89,1677.34 1778.24,1671.19 1798.03,1666.83C1803.49,1665.63 1816.85,1665.23 1816.4,1658.36C1816.37,1654.85 1815.67,1652.78 1817.34,1649.46C1823.89,1645.36 1831.76,1644.89 1839.1,1643.02C1850.68,1640.08 1877.08,1623.89 1882.04,1643.77C1882.73,1646.52 1882.73,1649.34 1882.56,1652.16C1882.87,1657.02 1884.31,1661.54 1886.86,1665.7C1895.57,1657.7 1922.5,1642.53 1932.52,1653.37C1934.93,1657.78 1933.61,1663.14 1933.15,1667.9C1932.35,1676.27 1931.58,1684.58 1931.47,1692.98C1923.93,1695.56 1916.69,1695.94 1909.38,1699.71C1911.18,1697.47 1906.07,1690.56 1904.54,1688.52C1895.62,1689.42 1886.88,1693.31 1878.22,1695.51C1851.29,1702.36 1824.82,1710.48 1798.14,1718.18C1720.43,1740.61 1642.56,1762.45 1564.73,1784.44C1532.64,1793.51 1500.38,1809.75 1466.72,1812.06C1459.71,1812.46 1454.62,1795.4 1448.85,1791.27C1445.02,1788.53 1440.14,1787.51 1436.02,1785.3C1431.84,1783.06 1428.76,1779.26 1424.4,1777.15C1421.5,1775.75 1418.45,1775.91 1417.71,1779.58C1414.05,1777.21 1407.41,1772.81 1406.51,1768.47C1415.61,1760.33 1432.18,1755.65 1443.92,1752.72C1450.91,1750.97 1461.91,1750.16 1465.6,1744C1465.73,1746.04 1466.18,1747.88 1466.58,1749.88C1466.76,1755.13 1480.44,1749.8 1484.19,1749.19C1494.85,1748.72 1505.03,1745.27 1515.44,1743.16C1522.65,1741.71 1530.47,1740.98 1537,1737.38C1540.63,1736.11 1537.87,1733.83 1535.97,1731.81C1532.04,1727.62 1527,1724.51 1522.03,1721.7C1516.95,1718.76 1512.09,1715.4 1507.17,1712.18C1495.47,1704.81 1485.45,1696.1 1471.47,1694.48C1469.25,1693.82 1468.14,1692.75 1466.71,1690.95C1471.18,1689.55 1468.57,1682.25 1466.19,1679.62C1460.15,1672.91 1449.32,1668.84 1441.52,1664.59C1419.67,1667.32 1397.39,1676.91 1375.88,1682.08C1340.9,1690.48 1305.25,1697.47 1269.99,1704.7C1239.69,1710.93 1208.55,1719.07 1177.78,1722.28C1174.05,1711.94 1173.79,1699.46 1172.71,1688.59C1172.1,1682.38 1170.58,1675.56 1171.13,1669.37Z" style="fill:rgb(255,196,0);"/>
    <path d="M1185.94,1762.88C1197.37,1759.33 1209.43,1757.58 1221.06,1754.73C1258,1745.68 1295.19,1738.42 1332.28,1730.03C1357.45,1724.34 1382.04,1720.76 1405.64,1710.24C1406.27,1710.8 1404.93,1715.15 1404.7,1716.02C1403.34,1721.34 1402.29,1726.81 1401.39,1732.23C1398.68,1748.51 1398,1765.14 1398.08,1781.63C1398.11,1788.61 1400.29,1798.64 1398.4,1805.24C1379.57,1812.11 1359.44,1816.25 1340.07,1821.34C1310.02,1829.25 1280.02,1837.35 1250.02,1845.45C1238.22,1848.63 1226.27,1852.02 1214.71,1856C1211.44,1857.13 1204.78,1861.37 1201.72,1860.06C1197.74,1827.82 1191.76,1794.86 1185.94,1762.88Z" style="fill:rgb(255,196,0);"/>
    <path d="M1319.94,2052.65C1386.33,2012.38 1459.46,1981.43 1530.48,1950.27C1669.84,1889.14 1812.1,1832.19 1957.81,1787.74C2042.77,1761.82 2127.52,1735.82 2213.2,1712.2C2292.3,1690.4 2372.98,1672.54 2453.23,1655.57C2627.16,1618.79 2803.6,1596.18 2980.32,1578.37C3061.44,1570.19 3143.09,1563.32 3224.63,1561.51C3378.81,1558.09 3533.39,1559.25 3686.86,1575.78C3723.2,1579.69 3759.73,1583.12 3795.65,1589.98C3804.17,1591.61 3812.87,1592.21 3821.32,1594.19C3823.74,1594.76 3828.93,1594.89 3829.99,1597.32C3783.28,1596.82 3736.31,1594.5 3689.45,1594.81C3610.43,1595.33 3531.52,1599.66 3452.72,1604.79C3303.88,1614.48 3155.68,1638.07 3009,1664.73C2814.97,1700 2621.28,1746.96 2434.24,1809.66C2280.93,1861.06 2130.98,1918.81 1984.22,1986.77C1936.98,2008.64 1890.4,2032.43 1844.47,2056.94C1830.36,2064.47 1816.4,2072.32 1802.29,2079.84C1797.25,2082.52 1792.23,2087.34 1786.86,2089.12C1782.92,2090.42 1778.77,2088.79 1774.91,2088.1C1766.38,2086.58 1757.8,2084.95 1749.19,2083.83C1717.49,2079.72 1685.78,2075.15 1653.91,2072.3C1580.35,2065.73 1506.73,2060.73 1432.94,2057.68C1408.86,2056.68 1384.73,2055.57 1360.62,2055.45C1347.38,2055.38 1331.62,2057.66 1318.81,2054.39C1319.19,2053.81 1319.57,2053.23 1319.94,2052.65Z" style="fill:rgb(189,133,45);"/>
    <path d="M1466.72,1812.06C1464.44,1813.22 1461.78,1813.84 1459.23,1813.88C1456.03,1809.14 1454.78,1802.39 1450.64,1798.34C1446.75,1794.54 1440.65,1794.54 1435.85,1792.43C1429.52,1789.65 1422.71,1784.32 1417.71,1779.58C1418.45,1775.91 1421.5,1775.75 1424.4,1777.15C1428.76,1779.26 1431.84,1783.06 1436.02,1785.3C1440.14,1787.51 1445.02,1788.53 1448.85,1791.27C1454.62,1795.4 1459.71,1812.46 1466.72,1812.06Z" style="fill:rgb(205,162,36);"/>
    <path d="M1537,1737.38C1530.47,1740.98 1522.65,1741.71 1515.44,1743.16C1505.03,1745.27 1494.85,1748.72 1484.19,1749.19C1486.46,1744.94 1491.51,1746.36 1495.18,1744.53C1500.98,1741.64 1506.76,1742.03 1512.88,1740.55C1517.42,1739.46 1523.96,1735.29 1528.64,1735.77C1531.73,1736.09 1533.77,1737.88 1537,1737.38Z" style="fill:rgb(248,237,139);"/>
    <path d="M1578.31,1835.68C1589.27,1830.91 1605.32,1822.78 1617.24,1821.92C1622.6,1821.53 1628.25,1825.46 1632.82,1827.83C1641.04,1832.09 1649.14,1836.65 1657.25,1841.11C1662.05,1843.76 1668.73,1846.75 1672.23,1851.11C1663.48,1856.9 1651.78,1859.89 1641.92,1863.25C1637.12,1864.89 1632.05,1867.75 1627.07,1868.5C1621.53,1866.37 1616.44,1860.92 1611.34,1857.75C1600.73,1851.18 1586.36,1845.36 1578.31,1835.68Z" style="fill:rgb(190,138,56);"/>
    <path d="M1685.64,1802.15C1743.84,1782.27 1803.5,1765.09 1862.63,1748.08C1879.55,1743.21 1896.34,1737.6 1913.07,1732.12C1920.21,1729.77 1928.27,1724.7 1935.72,1724.31C1944.81,1728.55 1953.44,1733.7 1961.66,1739.46C1964.2,1741.24 1968.61,1743.38 1970.4,1745.84C1963.86,1746.35 1956.48,1749.43 1950.13,1751.27C1935.85,1755.42 1921.65,1759.44 1907.54,1764.17C1867.04,1777.75 1827.17,1792.91 1786.86,1806.97C1773.1,1811.77 1759.49,1817.07 1745.81,1822.09C1741.17,1823.79 1735.49,1827.79 1730.5,1827.8C1725.57,1827.81 1719.68,1823.23 1715.47,1820.93C1705.08,1815.26 1694.62,1809.71 1684.16,1804.2C1684.65,1803.52 1685.14,1802.84 1685.64,1802.15Z" style="fill:rgb(203,156,82);"/>
    <path d="M1896.29,1647.86C1892.66,1651.04 1887.04,1651.07 1882.56,1652.16C1882.73,1649.34 1882.73,1646.52 1882.04,1643.77C1877.08,1623.89 1850.68,1640.08 1839.1,1643.02C1831.76,1644.89 1823.89,1645.36 1817.34,1649.46C1815.67,1652.78 1816.37,1654.85 1816.4,1658.36C1815.56,1656.97 1815.57,1655.9 1815.45,1654.25C1811.97,1639.61 1828.32,1640.03 1839,1637.42C1853.08,1633.97 1874.68,1620.11 1885.77,1637.51C1887.47,1640.17 1887.97,1643.21 1889.04,1646.12C1891.2,1647.61 1893.72,1648.36 1896.29,1647.86Z" style="fill:rgb(244,238,151);"/>
    <path d="M1934.94,2065.06C1938.86,2070.14 1943.04,2063.77 1946.65,2062.53C1950.34,2061.28 1953.75,2061.78 1957.35,2059.85C1973.66,2051.1 1990.35,2043.05 2005.84,2033.35C2011,2030.12 2017.17,2029.02 2021,2023.96C2022.32,2022.44 2022.98,2022.33 2024.93,2021.96C2025.76,2024.57 2028.72,2022.77 2027.11,2020.46C2058.92,2007.86 2089.34,1991 2120.84,1977.51C2159.04,1961.15 2197.74,1945.94 2236.33,1930.56C2408.83,1861.77 2586.49,1806.42 2765.43,1757.09C2903.23,1719.1 3043.95,1690.79 3184.99,1667.99C3288.04,1651.33 3391.75,1636.56 3495.88,1628.53C3575.72,1622.38 3655.86,1619.66 3735.88,1616.83C3767.43,1615.71 3799.1,1617 3830.67,1616.04C3832.41,1626.95 3829.96,1638.36 3831.15,1649.27C3801.52,1649.72 3771.06,1657.5 3741.84,1662.07C3705.11,1667.81 3668.25,1672.77 3631.6,1679.23C3601.78,1684.49 3572.33,1691.77 3542.61,1697.47C3450.98,1715.02 3361.31,1739.82 3271.95,1766.34C3069.7,1826.39 2873.45,1907.88 2687.01,2006.64C2625.92,2039.01 2565.68,2073.37 2507.96,2111.48C2483.55,2127.6 2459.01,2143.64 2435.14,2160.54C2426.39,2166.74 2417.12,2177.39 2407.63,2181.81C2394.64,2183.99 2378.08,2177.41 2365.13,2175.73C2330.06,2171.2 2295.19,2165.3 2260.2,2160.23C2167.84,2146.86 2074.81,2134.14 1983.18,2116.34C1959.14,2111.68 1934.8,2108.03 1910.59,2104.33C1899.76,2102.67 1886.75,2102.8 1876.83,2097.78C1880.63,2092.04 1888.46,2089.43 1894.36,2086.21C1907.59,2078.98 1920.98,2070.75 1934.94,2065.06Z" style="fill:rgb(203,156,82);"/>
    <path d="M1882.56,1652.16C1887.04,1651.07 1892.66,1651.04 1896.29,1647.86C1904.68,1646.09 1913.01,1643.35 1921.39,1641.79C1926.39,1643.98 1929.22,1640.18 1933.19,1637.48C1946.29,1632.82 1960.22,1629 1973.86,1626.3C1970.63,1617.8 1965.61,1610.21 1963.08,1601.28C1955.25,1573.6 1954.35,1544.25 1957.7,1515.81C1969.36,1416.85 2046.59,1333.36 2144.43,1314C2255.97,1291.94 2385.61,1353.42 2415.84,1468.6C2419.42,1482.21 2422.89,1495.61 2423.66,1509.73C2434.6,1509.3 2445.95,1508.46 2456.82,1506.94C2457.76,1502.89 2455.28,1496.83 2454.23,1492.91C2451.2,1481.63 2447.41,1470.71 2443.49,1459.72C2425.97,1410.65 2400.35,1368.44 2358.3,1336.84C2302.09,1294.59 2230.21,1273.53 2160.08,1282.71C2132.07,1286.37 2104.25,1295.64 2078.64,1307.28C2054.59,1318.2 2031.43,1331.54 2011.66,1349.22C1994.83,1364.28 1982.1,1381.22 1969.81,1399.93C1964.18,1400.52 1955.13,1390.88 1950.29,1388.3C1950.5,1384.46 1955.16,1379.66 1957.03,1376.16C1963.76,1363.6 1971.47,1350.85 1981.03,1340.24C2015.92,1301.53 2063.76,1266.06 2116.66,1258.34C2118.05,1255.33 2116.35,1248.33 2116.02,1244.98C2114.98,1234.29 2114.09,1223.57 2113.08,1212.9C2109.41,1174.04 2104.95,1134.02 2104.49,1095C2095.64,1095.58 2087.07,1094.67 2081.4,1087.01C2072.98,1075.62 2076.25,1050.19 2091.52,1045.68C2101.93,1042.61 2113.78,1042.43 2124.51,1040.53C2151.61,1035.73 2178.73,1031.03 2205.85,1026.34C2272.17,1014.89 2338.28,1002.11 2404.52,990.148C2418.16,987.688 2431.87,985.574 2445.5,983.023C2454.5,981.34 2464.66,978.41 2473.87,979.73C2490.02,982.047 2494.43,1006.84 2490.48,1019.61C2486.28,1024.55 2477.7,1025.96 2471.8,1028.39C2488.9,1069.68 2502.27,1112.61 2516.5,1154.97C2522.03,1171.41 2526.41,1188.76 2533.41,1204.65C2552.84,1202.22 2573.2,1197.89 2592.5,1194.29C2589.68,1155.18 2580.18,1116.49 2576.93,1077.34C2580.17,1073.71 2586.96,1073.66 2589.61,1070.15C2587.77,1052.69 2583.95,1035.47 2582.2,1017.94C2581.45,1010.51 2579.8,1001.62 2581.83,994.289C2584.48,984.703 2590.6,976.242 2597.4,969.188C2601.48,964.965 2607.32,957.773 2613.11,956.102C2615.11,960.98 2614.73,966.777 2616.25,971.91C2617.03,974.551 2619.04,978 2618.16,980.75C2614.12,984.313 2608.87,989.125 2607.26,994.453C2605.21,1001.25 2607.48,1010.24 2608.29,1017.15C2610.21,1033.53 2611.62,1050.99 2615.98,1066.92C2618.95,1067.17 2626.13,1066.4 2627.96,1068.58C2632.06,1077.38 2632.96,1087.75 2634.69,1097.2C2638.37,1117.37 2641.48,1137.65 2645.43,1157.76C2647.08,1166.19 2647.51,1178.25 2651.68,1185.73C2692.97,1177.9 2735.38,1174.12 2777.22,1170.21C2820.07,1166.21 2863.74,1163.02 2906.78,1165.61C2926.89,1166.82 2954.65,1167.32 2969.54,1182.58C2972.72,1185.83 2982.52,1196.98 2980.19,1202.12C2964.18,1205.21 2947.86,1207.31 2931.75,1209.84C2921.97,1211.37 2910.97,1212.2 2903.7,1219.71C2897.6,1226.01 2898.05,1233.52 2896.76,1241.56C2894.05,1258.5 2894.2,1277.64 2894.45,1294.78C2895.6,1295.97 2898.16,1295.39 2899.77,1295.13C2904.89,1294.32 2912.39,1296.21 2917.02,1294.23C2914.46,1281.38 2917.86,1264.84 2918.14,1251.66C2918.27,1245.99 2917.31,1239.69 2920.6,1234.76C2930.55,1224.4 2951.57,1226.68 2964.92,1225.28C2970.41,1224.71 2976.86,1223.01 2982.29,1224.06C2980.58,1256.69 2983.66,1289.52 2980.86,1322.14C2980.48,1326.63 2980.93,1332.89 2978.98,1336.99C2976.97,1341.18 2971.16,1348.18 2974.81,1352.91C2988.42,1358.79 3003.17,1365.85 3014.77,1375.18C3051.39,1404.68 3065.8,1448.11 3062.88,1494.04C3061.85,1510.19 3057.12,1524.71 3053.61,1540.32C3049,1543.55 3035.18,1541.81 3029.51,1541.93C3013.86,1542.28 2998.31,1544.48 2982.73,1545.57C2976.76,1545.98 2970.75,1548 2964.8,1547.23C2976.61,1532.38 2989.3,1522.73 2995.92,1504.07C3015.6,1448.6 2958.98,1392.22 2903.15,1412.39C2894.48,1415.52 2886.74,1420.53 2880,1426.79C2872.34,1433.89 2866.11,1443.05 2861.98,1452.62C2856.85,1464.55 2856,1476.53 2856.99,1489.34C2858.07,1503.07 2861.14,1515.87 2870.12,1526.69C2880.45,1539.17 2894.01,1547.59 2908.13,1554.92C2888.17,1556.35 2868.32,1557.69 2848.46,1560.23C2838.36,1561.51 2827.27,1564.74 2817.19,1564.68C2813.45,1561.63 2811.01,1554.94 2808.92,1550.59C2802.38,1537.04 2799.84,1520.54 2792.46,1507.69C2760.31,1506.91 2726.8,1516.16 2695.29,1521.67C2635.8,1532.07 2576.55,1543.67 2517.15,1554.52C2495,1558.56 2472.78,1562.17 2450.65,1566.31C2443.31,1567.68 2430.02,1567.4 2424.46,1572.38C2424.92,1586.28 2420.37,1600.31 2416.81,1613.58C2415.51,1618.44 2415.02,1626.39 2411.57,1630.21C2402.22,1633.56 2390.54,1633.97 2380.72,1635.94C2358.19,1640.48 2335.78,1646.06 2313.45,1651.46C2252.11,1666.29 2191.67,1684.56 2130.62,1700.42C2107.99,1706.3 2085.3,1712.31 2062.91,1719.02C2056.95,1720.81 2050.77,1722.41 2044.94,1724.6C2042.55,1725.5 2040.12,1727.59 2037.61,1726.61C2031.72,1717.97 2023.45,1710.89 2016.86,1702.77C2009.85,1694.13 2003.28,1683.13 1998.41,1673.17C1993.14,1671.81 1985.46,1675.56 1980.2,1676.75C1967.88,1679.54 1955.26,1682.69 1943.4,1687.07C1939.21,1688.62 1935.64,1691.59 1931.47,1692.98C1931.58,1684.58 1932.35,1676.27 1933.15,1667.9C1933.61,1663.14 1934.93,1657.78 1932.52,1653.37C1922.5,1642.53 1895.57,1657.7 1886.86,1665.7C1884.31,1661.54 1882.87,1657.02 1882.56,1652.16ZM2074.09,1533.66C2072.22,1557.36 2076.16,1582.56 2087.55,1603.57C2121.64,1666.41 2205.72,1686.62 2264.49,1645.57C2278.28,1635.94 2290.63,1619.73 2298.8,1605.18C2308.11,1588.61 2313.52,1569.78 2315.02,1550.87C2316.75,1529.18 2313.51,1506.07 2303.66,1486.5C2268.9,1417.4 2175.31,1396.54 2116.7,1448.06C2104.89,1458.44 2095.09,1470.94 2088.2,1485.12C2080.77,1500.44 2075.43,1516.62 2074.09,1533.66ZM2142.4,1092.52C2143.49,1118.91 2148.68,1145.63 2150.88,1172C2152.84,1195.41 2152.64,1221.22 2157.72,1244.12C2250.09,1226.1 2354.02,1266.32 2416.36,1335.5C2426.38,1346.62 2439.13,1358.45 2446.52,1371.52C2450.01,1373.58 2461.88,1368.97 2466.04,1368.23C2483.64,1365.14 2501.02,1363.19 2518.79,1361.66C2520.27,1358.13 2517.84,1350.74 2517.45,1346.94C2516.45,1337.09 2516.6,1327.09 2516.25,1317.2C2507.45,1310.61 2491.87,1306.67 2487.98,1294.89C2486.51,1290.43 2487.66,1283.4 2488.98,1278.98C2489.25,1278.09 2491.83,1273.4 2491.27,1272.91C2475.44,1271.14 2461.92,1261.71 2446.53,1258.36C2442.43,1267.89 2439.55,1283.18 2430.61,1289.37C2424.14,1291.05 2419.69,1286.14 2414.32,1283.56C2414.96,1273.87 2423.17,1261.76 2426.96,1252.62C2433.03,1238 2438.25,1222.94 2443.53,1208.02C2445.82,1201.55 2447.57,1194.65 2451.29,1188.83C2454.73,1186.59 2462.59,1187.78 2466.1,1189.48C2471.95,1198.25 2466.27,1206.25 2464.02,1214.9C2462.38,1221.24 2461.53,1228.34 2461.39,1234.88C2471.99,1243.64 2486.2,1245.66 2495.18,1256.71C2497.97,1256.99 2504.65,1252.21 2507.14,1250.44C2508.52,1244.14 2506.22,1235.64 2504.67,1229.5C2500.83,1214.35 2494.74,1199.88 2489.84,1185.07C2473.33,1135.19 2457.81,1085.02 2439.87,1035.67C2431.73,1033.92 2420.52,1037.99 2412.42,1039.53C2392.14,1043.36 2371.86,1047.19 2351.54,1050.8C2281.58,1063.19 2211.38,1075.47 2141.66,1088.78C2141.91,1090.03 2142.16,1091.28 2142.4,1092.52ZM2767.3,1467.14C2766.04,1475.08 2766.9,1482.81 2766.74,1490.76C2768.43,1491.82 2770.62,1490.89 2772.53,1490.62C2778.28,1489.8 2784.14,1489.19 2789.95,1488.96C2790.75,1472.15 2792.16,1455.78 2797.38,1439.64C2812.35,1393.4 2851,1356.81 2899.04,1347.01C2914.91,1343.77 2931.72,1343.56 2947.79,1345.28C2953.77,1345.92 2959.74,1348.53 2965.65,1348.75C2968.42,1343.92 2971.47,1336.25 2969.09,1330.86C2962.92,1323.05 2954.09,1321.9 2944.76,1321.02C2928.97,1319.54 2912.66,1319.32 2897.08,1322.66C2848.34,1333.1 2803.05,1365.62 2782.88,1412.25C2775.21,1429.98 2772.4,1448.7 2767.3,1467.14Z" style="fill:rgb(54,124,43);"/>
    <path d="M1921.39,1641.79C1925.44,1640.14 1928.86,1638.44 1933.19,1637.48C1929.22,1640.18 1926.39,1643.98 1921.39,1641.79Z" style="fill:rgb(158,149,72);"/>
    <path d="M2021,2023.96C2017.17,2029.02 2011,2030.12 2005.84,2033.35C1990.35,2043.05 1973.66,2051.1 1957.35,2059.85C1953.75,2061.78 1950.34,2061.28 1946.65,2062.53C1943.04,2063.77 1938.86,2070.14 1934.94,2065.06C1939.82,2060.78 1948.22,2057.97 1954.09,2055.07C1967.86,2048.26 1981.76,2041.8 1995.61,2035.13C2003.81,2031.18 2011.72,2024.89 2021,2023.96Z" style="fill:rgb(166,83,41);"/>
    <path d="M2027.11,2020.46C2028.72,2022.77 2025.76,2024.57 2024.93,2021.96C2025.91,2020.59 2025.24,2021.17 2027.11,2020.46Z" style="fill:rgb(166,83,41);"/>
    <path d="M2132.44,1533.57C2134.49,1516.59 2144.56,1497.86 2159.43,1488.77C2192.47,1468.57 2242.1,1480.59 2255.05,1519.68C2258.36,1529.67 2259.71,1540.01 2258.57,1550.52C2256.94,1565.54 2250.17,1580.8 2238.73,1590.89C2214.7,1612.05 2170.15,1610.31 2147.98,1586.88C2134.78,1572.93 2130.18,1552.26 2132.44,1533.57Z" style="fill:rgb(54,124,43);"/>
    <path d="M2497.52,2187.11C2525.33,2161.57 2558.47,2142.26 2589.97,2121.75C2648.73,2083.48 2710.41,2049.25 2772.28,2016.34C2873.78,1962.34 2976.86,1910.56 3083.76,1867.97C3211.12,1817.22 3340.88,1774.5 3473.56,1739.9C3551.86,1719.48 3631.29,1703.75 3710.96,1689.78C3734.56,1685.64 3758.2,1681.95 3781.87,1678.27C3797.74,1675.81 3814.71,1672.21 3830.81,1673.07C3830.01,1679.46 3831.28,1686.81 3831.32,1693.34C3831.44,1712.92 3832.86,1733.43 3831.01,1752.91C3816.74,1761.93 3798.26,1765.47 3782.53,1771.39C3751.9,1782.91 3721.31,1794.57 3691.21,1807.43C3613.16,1840.75 3538.06,1880.4 3464.81,1923.14C3381.68,1971.65 3302.1,2027.69 3228.42,2089.62C3202.68,2111.25 3176.74,2133.53 3152.77,2157.13C3140.86,2168.85 3130.29,2186.73 3116.04,2195.58C3113.27,2197.3 3109.09,2196.67 3105.97,2197.04C3096.27,2198.22 3086.37,2197.6 3076.68,2198.87C3042.52,2203.36 3007.82,2202.06 2973.53,2204.89C2941.6,2207.53 2909.4,2204.59 2877.5,2206.72C2850.07,2208.55 2822.07,2207.03 2794.58,2206.73C2740.03,2206.14 2685.66,2205.33 2631.18,2202.43C2600.32,2200.78 2569.57,2198.47 2538.78,2195.9C2525.76,2194.81 2508.33,2195.91 2496.53,2190.09C2496.86,2189.1 2497.19,2188.1 2497.52,2187.11Z" style="fill:rgb(190,138,56);"/>
    <path d="M2892.3,1470.96C2893.73,1466.25 2895.98,1461.36 2899.23,1457.63C2924.75,1428.38 2975.25,1458.23 2963.88,1494.75C2952.66,1530.79 2895.66,1525.91 2891,1488.48C2890.29,1482.79 2890.62,1476.47 2892.3,1470.96Z" style="fill:rgb(54,124,43);"/>
    <g transform="matrix(1,0,0,1,1030.61,-1039.9)">
        <g transform="matrix(632.409,0,0,632.409,2291.62,3800)">
        </g>
        <text x="500px" y="3800px" style="font-family:'PalatinoLinotype-Bold', 'Palatino Linotype', serif;font-weight:700;font-size:632.409px;fill:rgb(190,138,56);">Grade</text>
    </g>
    <g transform="matrix(1,0,0,1,184.869,-1039.9)">
        <g transform="matrix(632.409,0,0,632.409,1343.31,3800)">
        </g>
        <text x="500px" y="3800px" style="font-family:'PalatinoLinotype-Bold', 'Palatino Linotype', serif;font-weight:700;font-size:632.409px;fill:rgb(54,124,43);">Ag</text>
    </g>
</svg>
