<svg xmlns="http://www.w3.org/2000/svg"
shape-rendering="geometricPrecision"
width="4000" height="4000" viewBox="0 0 1024 1024">
  <metadata>null</metadata>

<path d="
M 55.978 416.102
C 56.087 415.535 56.05 415.864 56.032 415.109
C 56.838 414.544 58.413 414.792 59.399 414.793
C 62.486 414.797 65.578 415.046 68.659 415.226
C 80.756 415.935 92.811 416.948 104.855 418.279
C 140.352 422.203 175.547 428.369 210.186 437.057
C 221.043 439.78 232.018 442.247 242.684 445.67
C 247.148 447.104 252.447 448.163 256.536 450.476
C 253.501 456.568 250.221 462.525 246.854 468.44
C 245.321 471.133 244.129 474.598 242.012 476.889
C 240.988 477.999 238.711 479 237.361 479.727
C 235.443 479.778 233.345 478.249 231.618 477.521
C 227.214 475.666 222.779 473.869 218.4 471.957
C 205.745 466.43 192.455 462.035 179.381 457.626
C 139.315 444.111 97.829 435.714 56.055 429.595
C 55.87 425.161 55.566 420.525 55.978 416.102 Z"
opacity="1" fill="rgb(225,139,100)" fill-rule="evenodd" />
<path d="
M 55.94 455.12
C 56.881 448.72 55.333 442.026 56.309 435.616
C 81.942 439.157 107.266 445.148 132.165 452.106
C 147.569 456.41 162.934 460.825 177.946 466.37
C 188.326 470.204 198.407 474.639 208.634 478.842
C 211.387 479.974 214.216 481.016 216.831 482.451
C 217.491 482.814 219.122 483.349 219.501 483.987
C 219.795 484.48 218.124 485.017 217.841 485.147
C 215.821 486.076 213.509 487.038 211.734 488.388
C 213.586 490.492 215.805 491.946 218.049 493.597
C 218.865 494.197 219.604 494.877 220.388 495.516
C 220.562 495.659 221.381 496.073 221.317 496.172
C 217.133 498.652 211.615 499.584 206.986 500.918
C 200.57 502.767 194.267 505.185 187.936 507.308
C 184.763 508.372 181.524 509.111 178.326 510.076
C 176.889 510.509 174.995 511.502 173.49 511.459
C 172.437 511.429 171.337 510.387 170.456 509.881
C 167.801 508.358 165.115 506.884 162.437 505.404
C 154.075 500.783 145.453 496.676 136.852 492.523
C 110.949 480.017 83.559 471.052 56.219 462.35
C 55.331 460.813 55.877 456.929 55.94 455.12 Z"
opacity="1" fill="rgb(207,154,97)" fill-rule="evenodd" />
<path d="
M 55.944 485.12
C 56.328 482.162 56.065 478.974 56.052 475.991
C 56.047 474.9 55.809 473.35 56.322 472.377
C 64.12 473.995 71.654 477.444 79.152 480.076
C 99.521 487.227 119.677 496.227 138.598 506.606
C 144.663 509.932 150.731 513.286 156.608 516.936
C 158.881 518.348 162.305 519.857 163.954 522.007
C 159.875 522.914 155.874 524.395 151.833 525.485
C 146.631 526.887 141.367 528.067 136.22 529.662
C 134.009 530.346 131.778 531.031 129.54 531.619
C 128.617 531.862 127.1 532.105 126.527 532.881
C 128.488 534.324 130.55 535.699 132.469 537.2
C 133.025 537.634 134.272 538.26 134.561 538.884
C 132.203 539.836 129.483 540.077 127.051 540.889
C 121.976 542.586 116.856 544.145 111.746 545.739
C 109.498 546.441 107.243 547.139 104.984 547.799
C 103.875 548.122 102.799 548.907 101.614 548.82
C 99.148 547.515 97.139 545.102 94.958 543.369
C 90.281 539.654 85.47 536.034 80.536 532.667
C 75.244 529.055 69.796 525.672 64.314 522.356
C 61.727 520.791 58.501 519.554 56.228 517.56
C 55.499 513.501 56.087 508.825 56.079 504.696
C 56.066 498.175 55.673 491.639 55.944 485.12 Z"
opacity="1" fill="rgb(160,109,63)" fill-rule="evenodd" />
<path d="
M 56.319 393.402
C 64.613 393.29 72.879 392.783 81.186 392.863
C 129.484 393.326 177.945 397.619 225.696 404.78
C 242.159 407.248 258.637 409.907 274.882 413.575
C 279.663 414.654 284.524 415.58 289.229 416.955
C 291.102 417.502 293.202 417.724 294.947 418.619
C 294.746 418.899 293.748 418.952 293.395 419.019
C 291.859 419.31 290.328 419.586 288.8 419.925
C 284.942 420.781 281.078 421.704 277.192 422.424
C 275.054 422.821 272.389 422.925 270.459 423.981
C 268.598 425 268.301 427.45 267.573 429.254
C 266.373 432.226 265.218 435.258 263.836 438.151
C 263.275 439.326 262.797 440.852 261.918 441.825
C 242.185 435.568 221.978 430.681 201.758 426.279
C 180.212 421.59 158.652 417.45 136.808 414.394
C 110.203 410.673 83.168 407.398 56.272 407.102
C 55.948 405.466 56.215 403.668 56.222 402.004
C 56.233 399.144 56.141 396.257 56.319 393.402 Z"
opacity="1" fill="rgb(160,110,64)" fill-rule="evenodd" />
<path d="
M 402.151 422.179
C 401.444 421.326 400.224 420.741 399.255 420.228
C 396.766 418.745 393.873 417.159 391.123 416.263
C 389.215 415.547 387.237 414.409 385.424 413.465
C 384.853 410.395 385.063 406.858 383.441 404.087
C 381.994 403.268 379.815 404.014 378.302 404.364
C 374.673 405.202 370.989 405.791 367.341 406.529
C 356.244 408.773 345.135 410.951 333.969 412.837
C 331.146 413.314 328.325 413.851 325.513 414.39
C 323.747 414.729 321.925 415.423 320.109 415.06
C 314.483 413.938 308.966 411.902 303.372 410.574
C 293.51 408.232 283.389 406.563 273.426 404.687
C 236.133 397.664 197.991 393.079 160.122 390.82
C 137.13 389.449 114.044 388.493 90.997 388.695
C 83.512 388.761 76.034 389.116 68.557 389.443
C 64.687 389.613 60.659 390.124 56.798 389.933
C 56.551 388.868 56.455 387.387 56.92 386.382
C 64.403 384.566 72.254 383.745 79.853 382.507
C 101.493 378.98 123.209 376.983 145.074 375.629
C 162.426 374.553 179.845 373.936 197.237 374.278
C 217.398 374.674 237.467 376.319 257.543 378.078
C 291.952 381.093 326.674 386.081 360.216 394.463
C 383.17 400.199 406.075 405.604 428.546 413.104
C 433.854 414.876 439.156 416.654 444.41 418.583
C 445.333 418.922 448.908 419.857 449.077 420.814
C 442.187 423.198 434.976 424.723 428.019 426.938
C 425.789 427.648 423.516 428.161 421.258 428.767
C 420.087 429.081 418.749 429.64 417.518 429.453
C 411.936 428.604 407.451 423.698 402.151 422.179 Z"
opacity="1" fill="rgb(206,154,98)" fill-rule="evenodd" />
<path d="
M 114.067 552.568
C 129.772 547.166 146.006 543.615 161.956 539.001
C 167.317 537.45 172.803 536.285 178.136 534.645
C 179.778 534.14 181.568 533.863 183.269 533.661
C 183.911 533.585 184.527 533.408 185.146 533.228
C 185.397 533.155 186.145 533.004 185.886 532.967
C 183.1 532.564 180.313 533.005 177.53 533.178
C 171.022 533.584 164.551 534.378 158.043 534.772
C 154.995 534.957 151.647 535.333 148.622 534.957
C 148.943 533.919 151.487 533.579 152.502 533.296
C 156.304 532.232 160.127 531.296 163.985 530.436
C 172.274 528.59 180.651 527.147 188.916 525.194
C 196.95 523.296 204.852 520.84 212.899 518.954
C 217.514 517.873 222.14 516.925 226.691 515.608
C 227.488 515.378 230.584 515.001 230.807 514.101
C 228.682 512.487 224.094 513.161 221.578 513.04
C 212.862 512.622 204.631 513.427 195.997 514.394
C 193.668 514.655 191.339 514.707 189.009 514.925
C 187.775 515.041 186.078 515.544 184.914 515.005
C 186.303 514.138 188.011 513.936 189.534 513.354
C 195.126 511.218 201.089 510.113 206.903 508.74
C 212.033 507.528 216.98 505.684 222.068 504.321
C 227.068 502.982 232.197 502.116 237.126 500.51
C 238.782 499.97 240.197 498.971 241.804 498.418
C 241.546 500.631 242.445 503.57 242.954 505.721
C 244.591 512.64 247.623 518.298 252.011 523.869
C 253.693 526.004 255.948 527.731 257.561 529.891
C 255.347 530.351 252.891 530.061 250.624 530.415
C 243.644 531.505 236.539 531.908 229.544 532.924
C 218.712 534.497 207.835 535.738 197.014 537.42
C 185.317 539.239 173.705 541.602 162.049 543.674
C 151.416 545.564 140.67 547.51 130.167 550.027
C 126.661 550.867 123.084 551.294 119.55 551.974
C 118.185 552.237 116.889 552.706 115.499 552.864
C 115.099 552.909 113.737 553.177 114.067 552.568 Z"
opacity="1" fill="rgb(200,152,96)" fill-rule="evenodd" />
<path d="
M 114.377 749.145
C 116.022 744.965 118.167 740.946 119.924 736.802
C 125.56 723.505 131.652 710.404 137.477 697.19
C 149.982 668.82 161.855 640.15 174.429 611.812
C 176.768 611.254 179.607 611.653 182.008 611.661
C 187.531 611.678 193.172 612.005 198.682 611.688
C 200.871 614.622 202.042 618.974 203.486 622.338
C 206.378 629.079 209.388 635.774 212.37 642.476
C 222.114 664.372 231.637 686.372 241.113 708.385
C 245.131 717.716 248.934 727.147 252.998 736.458
C 254.213 739.242 255.288 742.08 256.521 744.857
C 256.973 745.876 258.221 747.645 258.31 748.723
C 248.199 748.168 237.81 748.519 227.683 748.663
C 225.296 742.11 222.491 735.597 219.84 729.139
C 218.767 726.525 217.412 723.851 216.623 721.145
C 204.433 720.785 192.201 721.139 180.007 721.145
C 172.028 721.149 163.81 720.566 155.86 721.191
C 153.565 728.18 150.563 735.378 147.428 742.036
C 146.472 744.068 145.83 747.38 144.186 748.946
C 141.464 749.49 138.281 749.067 135.503 749.059
C 128.526 749.038 121.328 748.565 114.377 749.145 Z
M 167.846 694.565
C 167.775 694.788 167.704 695.011 167.634 695.233
C 171.08 696.028 175.461 695.317 179.003 695.299
C 187.914 695.256 196.936 694.816 205.835 695.226
C 205.682 693.583 204.234 691.432 203.594 689.893
C 202.027 686.121 200.615 682.291 199.013 678.531
C 196.209 671.949 193.549 665.297 190.893 658.653
C 189.548 655.29 188.511 651.62 186.586 648.533
C 185.526 653.397 182.828 658.423 180.913 663.036
C 176.562 673.52 171.761 683.917 167.846 694.565 Z"
opacity="1" fill="rgb(131,134,66)" fill-rule="evenodd" />
<path d="
M 226.527 489.396
C 231.219 487.23 236.576 486.087 241.675 485.29
C 241.461 489.083 241.64 492.985 241.766 496.785
C 241.22 496.856 240.681 496.819 240.132 496.81
C 238.987 495.981 238.486 494.6 237.191 493.916
C 233.696 492.072 229.69 491.647 226.16 490.027
C 226.282 489.817 226.405 489.607 226.527 489.396 Z"
opacity="1" fill="rgb(195,148,99)" fill-rule="evenodd" />
<path d="
M 294.329 428.378
C 294.202 432.131 296.048 436.335 296.606 440.081
C 297.994 449.409 299.115 458.754 300.595 468.072
C 301.123 471.402 301.637 474.729 302.076 478.072
C 302.27 479.555 302.143 481.677 302.842 483.011
C 304.139 485.487 307.122 487.763 308.983 489.866
C 313.591 495.075 318.416 500.107 322.971 505.361
C 324.07 506.629 323.767 508.117 323.726 509.678
C 323.648 512.568 323.51 515.456 323.4 518.344
C 323.372 519.072 322.87 522.525 323.932 522.391
C 322.119 523.944 319.36 524.149 317.131 524.475
C 311.643 525.278 306.009 525.376 300.485 525.934
C 295.34 526.454 290.179 526.916 285.033 527.468
C 281.659 527.829 278.024 528.691 274.646 527.974
C 272.332 527.483 270.117 526.431 268.014 525.378
C 263.592 523.163 259.605 520.385 256.676 516.334
C 254.431 513.228 253.233 509.462 252.188 505.818
C 250.129 498.641 248.978 490.92 249.185 483.433
C 249.237 481.553 250.584 479.918 251.423 478.3
C 253.267 474.746 255.209 471.226 257.159 467.73
C 261.316 460.276 265.624 452.914 269.691 445.409
C 272.2 440.781 274.777 436.393 276.289 431.335
C 280.663 430.581 285.03 429.76 289.41 429.033
C 290.557 428.842 293.326 427.901 294.329 428.378 Z"
opacity="1" fill="rgb(247,193,22)" fill-rule="evenodd" />
<path d="
M 261.949 694.106
C 262.401 691.285 262.384 688.407 262.86 685.574
C 263.8 679.968 265.569 674.409 268.209 669.373
C 277.719 651.234 298.772 642.371 318.429 647.817
C 323.383 649.19 327.994 651.803 331.707 655.358
C 333.04 656.634 334.239 658.108 335.311 659.609
C 335.74 660.208 336.216 661.233 336.895 661.562
C 337.551 658.775 337.132 655.357 337.14 652.503
C 337.144 651.418 336.86 649.868 337.317 648.898
C 343.7 648.695 350.118 648.818 356.504 648.859
C 358.17 648.869 359.836 648.871 361.502 648.877
C 362.165 648.879 363.224 648.72 363.79 649.07
C 364.163 657.503 363.754 666.055 363.75 674.5
C 363.742 690.002 363.856 705.504 363.865 721.006
C 363.876 737.736 364.344 755.311 352.888 768.903
C 337.473 787.19 309.055 789.116 287.59 782.245
C 281.79 780.389 276.328 777.664 271.512 773.916
C 270.055 772.783 267.224 770.892 266.984 768.966
C 269.474 765.315 272.602 761.924 275.445 758.534
C 277.014 756.662 278.214 754.35 279.919 752.624
C 281.671 753.284 283.097 754.791 284.675 755.793
C 287.004 757.271 289.501 758.549 292.053 759.598
C 303.002 764.101 317.527 764.54 327.715 757.875
C 334.512 753.428 336.389 745.326 336.681 737.69
C 336.754 735.793 336.808 733.889 336.776 731.991
C 336.763 731.204 337.015 730.251 336.133 730.143
C 332.958 734.751 329.096 738.768 324.077 741.396
C 309.161 749.205 288.185 745.43 276.174 734.015
C 265.528 723.898 261.185 708.45 261.949 694.106 Z
M 290.47 694.118
C 289.876 702.504 292.657 712.752 300.008 717.646
C 314.291 727.157 334.984 718.18 336.255 700.664
C 336.914 691.582 335.717 682.46 328.86 675.833
C 321.506 668.727 307.254 667.67 299.373 674.468
C 293.654 679.4 290.993 686.746 290.47 694.118 Z"
opacity="1" fill="rgb(130,133,66)" fill-rule="evenodd" />
<path d="
M 294.329 428.378
C 295.635 427.538 298.341 426.586 299.809 427.358
C 299.668 428.943 300.057 430.69 300.215 432.278
C 300.491 435.061 300.556 438.256 301.511 440.903
C 309.388 440.083 317.361 437.997 325.118 436.404
C 334.143 434.551 343.271 432.763 352.224 430.612
C 357.731 429.289 363.435 426.835 369.028 426.134
C 371.026 427.223 373.799 428.265 375.346 429.982
C 375.953 430.655 376.622 432.524 375.477 432.883
C 372.73 432.929 370.001 432.596 367.27 432.376
C 366.464 432.311 365.083 432.091 364.464 432.668
C 364.402 433.143 366.764 433.224 367.169 433.328
C 368.858 433.762 370.439 434.707 372.155 435.038
C 373.266 435.253 374.479 435.013 375.568 435.322
C 376.115 435.478 375.863 436.025 375.812 436.45
C 375.593 439.784 375.375 443.125 375.194 446.464
C 374.25 448.04 371.432 448.248 369.643 448.695
C 366.639 449.446 362.395 450.644 360.066 452.729
C 360.297 453.839 361.997 454.966 362.934 455.573
C 364.214 456.786 365.956 458.15 367.578 458.862
C 368.806 459.401 370.368 459.403 371.363 460.376
C 372.423 461.413 372.744 463.14 373.562 464.353
C 374.216 464.342 374.896 464.185 375.48 463.886
C 384.096 463.296 392.357 459.139 400.571 456.818
C 420.494 451.188 440.43 445.595 460.323 439.854
C 467.153 437.883 473.93 435.803 480.824 434.051
C 483.041 433.487 485.28 432.491 487.561 432.262
C 487.954 432.782 489.263 434.551 488.801 435.126
C 478.044 438.915 466.824 441.561 455.888 444.849
C 432.121 451.996 408.214 458.634 384.653 466.396
C 386.092 468.33 388.418 469.756 390.321 471.201
C 393.807 473.847 397.363 476.366 400.889 478.955
C 402.462 480.11 404.126 481.145 405.651 482.362
C 405.967 482.614 406.72 482.927 406.838 483.318
C 403.687 485.595 399.537 486.847 395.999 488.416
C 389.187 491.438 382.328 494.369 375.543 497.446
C 362.898 503.179 350.489 509.453 337.946 515.409
C 333.264 517.633 328.789 520.578 323.932 522.391
C 322.87 522.525 323.372 519.072 323.4 518.344
C 323.51 515.456 323.648 512.568 323.726 509.678
C 323.767 508.117 324.07 506.629 322.971 505.361
C 318.416 500.107 313.591 495.075 308.983 489.866
C 307.122 487.763 304.139 485.487 302.842 483.011
C 302.143 481.677 302.27 479.555 302.076 478.072
C 301.637 474.729 301.123 471.402 300.595 468.072
C 299.115 458.754 297.994 449.409 296.606 440.081
C 296.048 436.335 294.202 432.131 294.329 428.378 Z
M 303.601 451.297
C 305.09 459.483 306.621 467.922 307.641 476.175
C 308.423 476.51 310.129 475.425 310.967 475.136
C 313.924 474.118 316.985 473.25 320.004 472.435
C 327.685 470.362 335.365 468.288 343.059 466.264
C 348.016 464.96 353.171 463.901 357.991 462.142
C 358.473 460.451 357.916 457.884 357.908 456.098
C 357.889 451.876 358.063 447.618 358.755 443.451
C 358.986 442.064 359.256 440.663 359.604 439.302
C 359.661 439.078 360.005 437.964 359.844 437.821
C 353.801 440.515 347.508 441.43 341.063 442.888
C 331.569 445.035 322.049 446.893 312.591 449.211
C 309.613 449.941 306.527 450.388 303.601 451.297 Z"
opacity="1" fill="rgb(127,131,68)" fill-rule="evenodd" />
<path d="
M 299.809 427.358
C 303.069 426.927 306.259 425.992 309.506 425.433
C 321.637 423.346 333.72 420.779 345.905 419.022
C 353.542 418.05 360.983 415.801 368.628 414.822
C 371.335 414.475 374.888 413.172 377.426 414.447
C 377.495 415.347 377.882 416.134 378.207 416.968
C 378.225 417.54 377.909 417.917 377.745 418.457
C 377.685 418.741 377.269 419.796 377.519 419.929
C 378.919 420.677 380.956 420.811 382.48 421.441
C 383.349 422.147 384.436 422.532 385.383 423.121
C 392.139 427.319 399.333 430.307 406.491 433.729
C 409.28 435.063 412.395 438.226 415.554 438.385
C 418.475 438.533 421.685 437.144 424.492 436.461
C 431.369 434.787 438.273 432.939 445.051 430.897
C 450.02 429.4 455.23 427.825 460.295 426.709
C 461.693 426.401 465.114 426.299 464.999 424.539
C 464.991 423.641 464.811 423.111 465.239 422.261
C 466.916 421.212 468.931 421.091 470.809 420.614
C 473.774 419.86 480.533 415.716 481.803 420.805
C 481.979 421.509 481.98 422.232 481.934 422.953
C 482.015 424.196 482.383 425.355 483.036 426.42
C 485.266 424.372 492.161 420.488 494.726 423.262
C 495.342 424.391 495.004 425.763 494.887 426.982
C 494.681 429.126 494.485 431.253 494.455 433.403
C 492.527 434.064 490.672 434.161 488.801 435.126
C 489.263 434.551 487.954 432.782 487.561 432.262
C 485.28 432.491 483.041 433.487 480.824 434.051
C 473.93 435.803 467.153 437.883 460.323 439.854
C 440.43 445.595 420.494 451.188 400.571 456.818
C 392.357 459.139 384.096 463.296 375.48 463.886
C 373.687 463.99 372.382 459.623 370.905 458.565
C 369.925 457.864 368.676 457.602 367.621 457.037
C 366.55 456.463 365.762 455.491 364.647 454.951
C 363.905 454.591 363.124 454.632 362.934 455.573
C 361.997 454.966 360.297 453.839 360.066 452.729
C 362.395 450.644 366.639 449.446 369.643 448.695
C 371.432 448.248 374.25 448.04 375.194 446.464
C 375.226 446.986 375.343 447.458 375.444 447.968
C 375.49 449.313 378.994 447.948 379.952 447.792
C 382.682 447.671 385.287 446.788 387.952 446.25
C 389.799 445.877 391.8 445.692 393.472 444.77
C 394.401 444.443 393.694 443.861 393.208 443.343
C 392.203 442.272 390.912 441.475 389.64 440.756
C 388.339 440.002 387.094 439.142 385.836 438.318
C 382.841 436.431 380.276 434.201 376.696 433.786
C 376.127 433.619 375.844 433.343 375.477 432.883
C 376.622 432.524 375.953 430.655 375.346 429.982
C 373.799 428.265 371.026 427.223 369.028 426.134
C 363.435 426.835 357.731 429.289 352.224 430.612
C 343.271 432.763 334.143 434.551 325.118 436.404
C 317.361 437.997 309.388 440.083 301.511 440.903
C 300.556 438.256 300.491 435.061 300.215 432.278
C 300.057 430.69 299.668 428.943 299.809 427.358 Z"
opacity="1" fill="rgb(246,194,30)" fill-rule="evenodd" />
<path d="
M 303.601 451.297
C 306.527 450.388 309.613 449.941 312.591 449.211
C 322.049 446.893 331.569 445.035 341.063 442.888
C 347.508 441.43 353.801 440.515 359.844 437.821
C 360.005 437.964 359.661 439.078 359.604 439.302
C 359.256 440.663 358.986 442.064 358.755 443.451
C 358.063 447.618 357.889 451.876 357.908 456.098
C 357.916 457.884 358.473 460.451 357.991 462.142
C 353.171 463.901 348.016 464.96 343.059 466.264
C 335.365 468.288 327.685 470.362 320.004 472.435
C 316.985 473.25 313.924 474.118 310.967 475.136
C 310.129 475.425 308.423 476.51 307.641 476.175
C 306.621 467.922 305.09 459.483 303.601 451.297 Z"
opacity="1" fill="rgb(248,197,33)" fill-rule="evenodd" />
<path d="
M 337.906 525.479
C 354.901 515.168 373.621 507.247 391.803 499.27
C 427.479 483.619 463.897 469.04 501.199 457.661
C 522.95 451.025 544.645 444.37 566.58 438.323
C 586.828 432.742 607.482 428.171 628.027 423.826
C 672.553 414.409 717.722 408.623 762.962 404.062
C 783.728 401.968 804.631 400.21 825.505 399.746
C 864.974 398.87 904.547 399.169 943.835 403.4
C 953.138 404.402 962.49 405.279 971.687 407.036
C 973.867 407.452 976.095 407.606 978.259 408.114
C 978.878 408.259 980.206 408.293 980.477 408.915
C 968.519 408.787 956.494 408.193 944.499 408.272
C 924.27 408.405 904.07 409.512 883.897 410.826
C 845.792 413.307 807.853 419.346 770.303 426.171
C 720.633 435.199 671.048 447.221 623.165 463.273
C 583.918 476.43 545.531 491.216 507.961 508.613
C 495.867 514.213 483.942 520.302 472.184 526.576
C 468.571 528.504 464.999 530.513 461.385 532.438
C 460.097 533.125 458.812 534.359 457.435 534.814
C 456.427 535.147 455.366 534.731 454.378 534.554
C 452.193 534.165 449.996 533.746 447.794 533.46
C 439.677 532.407 431.559 531.239 423.402 530.51
C 404.57 528.828 385.724 527.548 366.834 526.765
C 360.668 526.51 354.492 526.226 348.319 526.194
C 344.928 526.177 340.894 526.76 337.615 525.923
C 337.712 525.775 337.809 525.627 337.906 525.479 Z"
opacity="1" fill="rgb(190,84,56)" fill-rule="evenodd" />
<path d="
M 375.48 463.886
C 374.896 464.185 374.216 464.342 373.562 464.353
C 372.744 463.14 372.423 461.413 371.363 460.376
C 370.368 459.403 368.806 459.401 367.578 458.862
C 365.956 458.15 364.214 456.786 362.934 455.573
C 363.124 454.632 363.905 454.591 364.647 454.951
C 365.762 455.491 366.55 456.463 367.621 457.037
C 368.676 457.602 369.925 457.864 370.905 458.565
C 372.382 459.623 373.687 463.99 375.48 463.886 Z"
opacity="0.996" fill="rgb(205,162,36)" fill-rule="evenodd" />
<path d="
M 393.472 444.77
C 391.8 445.692 389.799 445.877 387.952 446.25
C 385.287 446.788 382.682 447.671 379.952 447.792
C 380.534 446.705 381.827 447.068 382.766 446.6
C 384.252 445.859 385.73 445.959 387.296 445.581
C 388.459 445.301 390.133 444.233 391.331 444.357
C 392.124 444.44 392.645 444.898 393.472 444.77 Z"
opacity="0.996" fill="rgb(248,237,139)" fill-rule="evenodd" />
<path d="
M 384.96 677.603
C 385.597 673.815 385.618 669.968 386.41 666.182
C 388.953 654.026 394.024 642.708 402.437 633.476
C 422.184 611.806 455.749 605.121 482.965 614.65
C 488.704 616.66 494.098 619.472 499.172 622.806
C 501.916 624.61 505.077 626.685 507.069 629.346
C 507.081 630.957 503.937 633.28 502.97 634.481
C 500.293 637.807 497.584 641.115 494.948 644.474
C 493.494 646.326 492.189 648.352 490.383 649.89
C 489.324 649.722 487.824 647.542 486.991 646.806
C 484.677 644.761 482.12 643.077 479.373 641.667
C 468.533 636.105 455.295 634.728 443.626 638.313
C 413.485 647.575 404.619 690.202 425.396 712.709
C 440.813 729.41 465.175 728.632 484.289 719.271
C 484.55 715.909 484.177 712.387 484.149 709.01
C 484.117 704.969 484.398 700.819 484.077 696.794
C 483.711 696.398 482.793 696.57 482.268 696.568
C 480.395 696.563 478.535 696.394 476.66 696.372
C 469.347 696.285 461.89 695.787 454.589 696.244
C 454.014 693.594 454.604 690.221 454.615 687.5
C 454.636 682.197 454.21 676.588 454.715 671.32
C 473.362 670.878 492.035 671.331 510.684 671.229
C 511.483 675.549 510.786 680.605 510.796 684.999
C 510.817 694.502 510.862 704.005 510.905 713.509
C 510.924 717.732 510.947 721.955 510.96 726.178
C 510.965 728.004 511.495 730.394 510.929 732.142
C 508.888 734.52 505.582 736.199 502.987 737.901
C 495.853 742.579 488.173 746.081 479.946 748.328
C 455.937 754.883 428.643 751.86 408.965 735.689
C 402.805 730.626 397.948 724.089 393.893 717.272
C 390.61 711.751 388.681 705.423 387.132 699.238
C 385.4 692.322 384.398 684.743 384.96 677.603 Z"
opacity="1" fill="rgb(130,133,67)" fill-rule="evenodd" />
<path d="
M 404.047 469.933
C 406.853 468.713 410.962 466.632 414.014 466.411
C 415.385 466.312 416.833 467.318 418.003 467.925
C 420.105 469.016 422.18 470.183 424.255 471.325
C 425.485 472.002 427.196 472.767 428.09 473.885
C 425.85 475.366 422.855 476.132 420.332 476.993
C 419.103 477.412 417.804 478.145 416.529 478.335
C 415.112 477.791 413.809 476.395 412.503 475.585
C 409.786 473.901 406.109 472.413 404.047 469.933 Z"
opacity="1" fill="rgb(179,103,68)" fill-rule="evenodd" />
<path d="
M 431.523 461.351
C 446.424 456.261 461.695 451.862 476.833 447.508
C 481.165 446.261 485.463 444.826 489.745 443.422
C 491.574 442.822 493.637 441.523 495.543 441.422
C 497.872 442.509 500.081 443.827 502.184 445.301
C 502.836 445.758 503.965 446.306 504.422 446.935
C 502.749 447.066 500.86 447.854 499.234 448.326
C 495.578 449.387 491.942 450.417 488.33 451.628
C 477.963 455.103 467.756 458.984 457.436 462.584
C 453.914 463.812 450.43 465.171 446.927 466.454
C 445.74 466.889 444.286 467.915 443.008 467.917
C 441.745 467.919 440.237 466.746 439.159 466.157
C 436.501 464.706 433.823 463.285 431.145 461.876
C 431.271 461.701 431.397 461.526 431.523 461.351 Z"
opacity="1" fill="rgb(204,155,100)" fill-rule="evenodd" />
<path d="
M 485.449 421.852
C 484.521 422.667 483.081 422.674 481.934 422.953
C 481.98 422.232 481.979 421.509 481.803 420.805
C 480.533 415.716 473.774 419.86 470.809 420.614
C 468.931 421.091 466.916 421.212 465.239 422.261
C 464.811 423.111 464.991 423.641 464.999 424.539
C 464.784 424.184 464.787 423.91 464.756 423.488
C 463.865 419.739 468.051 419.847 470.785 419.179
C 474.388 418.297 479.919 414.748 482.756 419.202
C 483.191 419.884 483.321 420.661 483.593 421.406
C 484.147 421.787 484.793 421.979 485.449 421.852 Z"
opacity="1" fill="rgb(244,238,151)" fill-rule="evenodd" />
<path d="
M 495.345 528.656
C 496.347 529.956 497.418 528.324 498.342 528.009
C 499.286 527.687 500.161 527.816 501.081 527.322
C 505.257 525.082 509.529 523.021 513.496 520.538
C 514.815 519.712 516.395 519.428 517.377 518.133
C 517.713 517.744 517.882 517.716 518.383 517.621
C 518.594 518.291 519.353 517.829 518.941 517.237
C 527.083 514.013 534.87 509.695 542.936 506.242
C 552.715 502.055 562.621 498.162 572.501 494.222
C 616.66 476.612 662.141 462.444 707.949 449.815
C 743.228 440.089 779.251 432.843 815.358 427.005
C 841.739 422.74 868.289 418.958 894.944 416.904
C 915.384 415.329 935.901 414.634 956.385 413.908
C 964.463 413.622 972.57 413.951 980.651 413.705
C 981.097 416.499 980.47 419.419 980.775 422.213
C 973.19 422.328 965.392 424.321 957.912 425.49
C 948.508 426.959 939.071 428.23 929.69 429.884
C 922.057 431.23 914.516 433.092 906.909 434.551
C 883.452 439.046 860.494 445.393 837.62 452.184
C 785.842 467.557 735.602 488.417 687.875 513.701
C 672.236 521.987 656.813 530.783 642.037 540.54
C 635.788 544.665 629.507 548.771 623.397 553.099
C 621.157 554.686 618.784 557.412 616.353 558.544
C 613.029 559.101 608.789 557.416 605.473 556.988
C 596.495 555.828 587.568 554.318 578.611 553.02
C 554.966 549.596 531.151 546.34 507.695 541.784
C 501.54 540.589 495.308 539.656 489.112 538.708
C 486.338 538.283 483.008 538.318 480.468 537.032
C 481.442 535.563 483.445 534.895 484.956 534.069
C 488.342 532.22 491.771 530.112 495.345 528.656 Z"
opacity="1" fill="rgb(202,90,61)" fill-rule="evenodd" />
<path d="
M 481.934 422.953
C 483.081 422.674 484.521 422.667 485.449 421.852
C 487.598 421.4 489.731 420.697 491.875 420.299
C 493.157 420.86 493.88 419.885 494.897 419.194
C 498.249 418.002 501.816 417.023 505.307 416.333
C 504.481 414.157 503.195 412.214 502.548 409.928
C 500.544 402.842 500.314 395.329 501.172 388.048
C 504.157 362.714 523.926 341.34 548.974 336.385
C 577.528 330.737 610.716 346.476 618.456 375.961
C 619.371 379.445 620.26 382.876 620.456 386.491
C 623.257 386.38 626.164 386.167 628.945 385.776
C 629.186 384.739 628.552 383.189 628.282 382.185
C 627.507 379.298 626.538 376.501 625.533 373.688
C 621.048 361.127 614.489 350.32 603.725 342.23
C 589.334 331.415 570.934 326.024 552.98 328.373
C 545.81 329.311 538.687 331.684 532.131 334.664
C 525.976 337.46 520.047 340.874 514.986 345.4
C 510.677 349.255 507.417 353.592 504.27 358.383
C 502.831 358.532 500.513 356.065 499.274 355.404
C 499.327 354.421 500.521 353.193 501 352.298
C 502.722 349.081 504.696 345.818 507.144 343.101
C 516.076 333.191 528.322 324.111 541.865 322.135
C 542.221 321.364 541.786 319.573 541.702 318.715
C 541.436 315.979 541.206 313.234 540.948 310.503
C 540.008 300.555 538.866 290.308 538.749 280.319
C 536.483 280.469 534.291 280.236 532.839 278.274
C 530.683 275.36 531.521 268.85 535.428 267.695
C 538.093 266.908 541.128 266.861 543.874 266.375
C 550.813 265.147 557.754 263.943 564.697 262.744
C 581.676 259.811 598.601 256.539 615.557 253.478
C 619.05 252.848 622.559 252.307 626.049 251.654
C 628.351 251.223 630.954 250.473 633.311 250.811
C 637.446 251.404 638.573 257.752 637.564 261.019
C 636.488 262.285 634.292 262.647 632.781 263.267
C 637.159 273.837 640.58 284.829 644.225 295.673
C 645.639 299.882 646.76 304.322 648.552 308.39
C 653.527 307.768 658.739 306.659 663.68 305.737
C 662.959 295.726 660.526 285.821 659.695 275.8
C 660.524 274.87 662.262 274.856 662.939 273.958
C 662.469 269.489 661.491 265.08 661.042 260.593
C 660.851 258.69 660.429 256.414 660.948 254.538
C 661.627 252.084 663.193 249.918 664.935 248.112
C 665.978 247.031 667.475 245.19 668.957 244.762
C 669.468 246.011 669.37 247.495 669.76 248.809
C 669.961 249.485 670.474 250.368 670.248 251.072
C 669.216 251.984 667.871 253.216 667.459 254.58
C 666.934 256.321 667.515 258.622 667.723 260.391
C 668.213 264.584 668.575 269.054 669.692 273.131
C 670.452 273.196 672.29 272.999 672.757 273.557
C 673.808 275.808 674.037 278.464 674.48 280.883
C 675.423 286.046 676.22 291.239 677.23 296.387
C 677.653 298.545 677.762 301.631 678.83 303.547
C 689.401 301.543 700.256 300.575 710.967 299.574
C 721.939 298.549 733.118 297.734 744.136 298.397
C 749.284 298.706 756.391 298.833 760.203 302.74
C 761.016 303.572 763.524 306.428 762.929 307.743
C 758.831 308.533 754.651 309.072 750.527 309.718
C 748.025 310.11 745.208 310.324 743.346 312.247
C 741.785 313.858 741.901 315.781 741.571 317.84
C 740.876 322.176 740.914 327.076 740.98 331.464
C 741.274 331.769 741.928 331.619 742.341 331.554
C 743.653 331.347 745.573 331.831 746.757 331.324
C 746.101 328.034 746.972 323.798 747.045 320.425
C 747.077 318.974 746.832 317.361 747.673 316.099
C 750.221 313.446 755.602 314.03 759.019 313.672
C 760.424 313.525 762.075 313.09 763.467 313.358
C 763.028 321.712 763.818 330.116 763.101 338.467
C 763.002 339.618 763.119 341.221 762.618 342.27
C 762.105 343.342 760.617 345.134 761.552 346.345
C 765.035 347.849 768.812 349.658 771.78 352.047
C 781.156 359.597 784.845 370.715 784.096 382.475
C 783.833 386.609 782.622 390.325 781.725 394.323
C 780.544 395.149 777.007 394.702 775.555 394.734
C 771.548 394.824 767.568 395.388 763.578 395.666
C 762.05 395.772 760.511 396.287 758.989 396.092
C 762.012 392.289 765.261 389.819 766.956 385.042
C 771.993 370.842 757.5 356.409 743.207 361.572
C 740.988 362.374 739.006 363.655 737.279 365.257
C 735.318 367.076 733.724 369.421 732.668 371.872
C 731.353 374.925 731.135 377.991 731.39 381.271
C 731.665 384.785 732.452 388.062 734.75 390.834
C 737.395 394.027 740.866 396.184 744.482 398.059
C 739.372 398.425 734.29 398.77 729.206 399.418
C 726.621 399.747 723.782 400.574 721.2 400.558
C 720.243 399.777 719.619 398.064 719.083 396.951
C 717.41 393.481 716.758 389.259 714.87 385.969
C 706.64 385.768 698.06 388.137 689.994 389.547
C 674.765 392.209 659.597 395.179 644.39 397.956
C 638.72 398.991 633.033 399.915 627.367 400.976
C 625.487 401.327 622.086 401.255 620.662 402.53
C 620.779 406.088 619.615 409.679 618.704 413.076
C 618.37 414.32 618.244 416.357 617.363 417.333
C 614.967 418.192 611.978 418.295 609.465 418.801
C 603.697 419.962 597.96 421.39 592.242 422.773
C 576.541 426.569 561.068 431.246 545.438 435.308
C 539.646 436.813 533.837 438.352 528.105 440.07
C 526.579 440.528 524.996 440.936 523.505 441.498
C 522.893 441.729 522.272 442.262 521.628 442.011
C 520.119 439.799 518.003 437.988 516.317 435.91
C 514.522 433.697 512.839 430.882 511.592 428.332
C 510.245 427.984 508.278 428.943 506.931 429.248
C 503.777 429.963 500.547 430.769 497.51 431.89
C 496.437 432.286 495.524 433.048 494.455 433.403
C 494.485 431.253 494.681 429.126 494.887 426.982
C 495.004 425.763 495.342 424.391 494.726 423.262
C 492.161 420.488 485.266 424.372 483.036 426.42
C 482.383 425.355 482.015 424.196 481.934 422.953 Z
M 530.967 392.617
C 530.489 398.685 531.496 405.136 534.414 410.514
C 543.141 426.601 564.663 431.775 579.71 421.267
C 583.24 418.802 586.401 414.65 588.493 410.925
C 590.875 406.683 592.262 401.863 592.646 397.023
C 593.088 391.47 592.259 385.554 589.738 380.544
C 580.839 362.855 556.879 357.515 541.876 370.702
C 538.851 373.36 536.343 376.561 534.58 380.192
C 532.678 384.112 531.31 388.254 530.967 392.617 Z
M 548.455 279.686
C 548.733 286.442 550.062 293.281 550.626 300.031
C 551.128 306.025 551.076 312.632 552.377 318.495
C 576.023 313.881 602.629 324.178 618.588 341.888
C 621.153 344.735 624.417 347.764 626.308 351.109
C 627.202 351.636 630.241 350.456 631.307 350.268
C 635.813 349.477 640.261 348.977 644.811 348.585
C 645.19 347.681 644.566 345.789 644.467 344.817
C 644.21 342.295 644.25 339.734 644.16 337.203
C 641.908 335.515 637.918 334.508 636.923 331.492
C 636.546 330.35 636.841 328.55 637.18 327.42
C 637.249 327.19 637.909 325.99 637.765 325.866
C 633.713 325.411 630.252 322.997 626.312 322.139
C 625.261 324.58 624.525 328.495 622.236 330.078
C 620.581 330.509 619.441 329.252 618.067 328.591
C 618.229 326.111 620.331 323.01 621.301 320.671
C 622.855 316.927 624.192 313.072 625.543 309.253
C 626.129 307.596 626.579 305.831 627.53 304.34
C 628.411 303.766 630.424 304.072 631.322 304.508
C 632.818 306.752 631.365 308.8 630.79 311.014
C 630.368 312.637 630.152 314.456 630.115 316.129
C 632.829 318.372 636.466 318.888 638.767 321.719
C 639.481 321.789 641.191 320.566 641.828 320.113
C 642.182 318.501 641.593 316.323 641.195 314.753
C 640.212 310.874 638.654 307.17 637.398 303.377
C 633.172 290.61 629.2 277.765 624.606 265.131
C 622.522 264.683 619.653 265.726 617.579 266.119
C 612.387 267.101 607.197 268.082 601.995 269.004
C 584.084 272.178 566.112 275.32 548.265 278.727
C 548.328 279.047 548.392 279.367 548.455 279.686 Z
M 708.43 375.589
C 708.106 377.62 708.327 379.599 708.285 381.634
C 708.719 381.905 709.279 381.669 709.767 381.599
C 711.241 381.388 712.739 381.233 714.228 381.174
C 714.432 376.87 714.793 372.68 716.13 368.548
C 719.962 356.711 729.855 347.343 742.154 344.835
C 746.218 344.006 750.519 343.95 754.634 344.391
C 756.166 344.555 757.694 345.223 759.207 345.281
C 759.915 344.044 760.697 342.08 760.087 340.7
C 758.508 338.7 756.247 338.406 753.859 338.182
C 749.815 337.803 745.641 337.745 741.652 338.6
C 729.176 341.274 717.582 349.6 712.418 361.535
C 710.453 366.076 709.735 370.868 708.43 375.589 Z"
opacity="1" fill="rgb(127,132,66)" fill-rule="evenodd" />
<path d="
M 491.875 420.299
C 492.912 419.876 493.789 419.442 494.897 419.194
C 493.88 419.885 493.157 420.86 491.875 420.299 Z"
opacity="0.996" fill="rgb(158,149,72)" fill-rule="evenodd" />
<path d="
M 517.377 518.133
C 516.395 519.428 514.815 519.712 513.496 520.538
C 509.529 523.021 505.257 525.082 501.081 527.322
C 500.161 527.816 499.286 527.687 498.342 528.009
C 497.418 528.324 496.347 529.956 495.345 528.656
C 496.593 527.561 498.745 526.84 500.248 526.097
C 503.773 524.355 507.331 522.7 510.875 520.994
C 512.975 519.983 515 518.372 517.377 518.133 Z"
opacity="1" fill="rgb(166,83,41)" fill-rule="evenodd" />
<path d="
M 518.941 517.237
C 519.353 517.829 518.594 518.291 518.383 517.621
C 518.632 517.272 518.461 517.42 518.941 517.237 Z"
opacity="1" fill="rgb(166,83,41)" fill-rule="evenodd" />
<path d="
M 535.144 648.748
C 540.477 648.355 545.84 648.427 551.192 648.45
C 554.841 648.466 558.546 648.258 562.174 648.651
C 562.875 649.95 562.414 652.506 562.427 654.002
C 562.463 658.411 562.311 662.833 562.527 667.237
C 562.667 667.671 563.321 666.545 563.373 666.456
C 563.905 665.544 564.33 664.573 564.871 663.669
C 566.41 661.097 568.02 658.5 570.049 656.276
C 575.651 650.139 582.949 646.235 591.277 645.691
C 593.008 645.577 594.742 645.584 596.473 645.672
C 597.047 645.702 597.94 645.623 598.407 645.973
C 598.213 651.806 598.583 657.668 598.663 663.503
C 598.713 667.168 598.316 671.038 598.695 674.676
C 594.335 674.064 589.254 674.519 584.928 675.211
C 573.942 676.97 566.174 686.788 563.659 697.097
C 562.651 701.228 562.935 705.993 562.905 710.226
C 562.85 717.82 562.876 725.414 562.889 733.008
C 562.895 736.673 562.876 740.339 562.876 744.005
C 562.876 745.163 563.306 747.141 562.849 748.18
C 557.416 748.412 551.937 748.217 546.499 748.216
C 542.764 748.215 538.88 748.484 535.164 748.152
C 535.56 715.053 535.493 681.846 535.144 648.748 Z"
opacity="1" fill="rgb(130,133,67)" fill-rule="evenodd" />
<path d="
M 545.904 392.594
C 546.43 388.248 549.007 383.452 552.815 381.124
C 561.271 375.954 573.977 379.031 577.292 389.039
C 578.14 391.596 578.485 394.243 578.193 396.932
C 577.776 400.777 576.044 404.685 573.114 407.267
C 566.964 412.684 555.559 412.24 549.882 406.242
C 546.503 402.67 545.325 397.378 545.904 392.594 Z"
opacity="1" fill="rgb(128,133,67)" fill-rule="evenodd" />
<path d="
M 608.915 715.599
C 609.623 711.911 610.271 708.475 612.049 705.113
C 614.55 700.384 618.007 696.077 622.41 692.988
C 631.938 686.304 645.732 685.095 657.006 686.471
C 660.946 686.952 664.941 687.805 668.666 689.184
C 669.964 689.664 671.288 690.157 672.5 690.83
C 672.917 691.062 673.664 691.719 674.139 691.72
C 673.468 689.863 673.884 687.442 673.696 685.488
C 673.395 682.374 672.145 679.206 670.254 676.714
C 667.12 672.584 661.482 670.985 656.574 670.438
C 648.843 669.578 641.012 670.262 633.526 672.364
C 630.782 673.134 628.355 674.396 625.719 675.385
C 623.248 668.583 621.333 661.32 618.356 654.727
C 623.395 651.588 629.487 649.877 635.232 648.588
C 656.389 643.84 687.004 645.364 696.954 668.356
C 701.547 678.968 700.332 691.231 700.29 702.498
C 700.254 711.999 700.219 721.499 700.254 731
C 700.274 736.569 700.683 742.332 700.152 747.878
C 699.725 748.133 698.867 747.921 698.356 747.985
C 696.609 748.204 694.765 748.112 693.004 748.125
C 686.84 748.17 680.675 748.08 674.514 748.173
C 674.348 745.187 674.93 742.089 674.453 739.127
C 672.505 740.412 671.049 742.631 669.125 744.042
C 664.48 747.451 658.965 749.42 653.342 750.494
C 635.036 753.99 613.876 745.723 609.503 726.224
C 608.72 722.73 608.567 719.156 608.915 715.599 Z
M 636.41 715.588
C 636.194 717.119 636.241 718.736 636.466 720.264
C 638.411 733.477 657.01 733.738 666.17 728.527
C 673.551 724.328 675.035 715.56 673.62 707.723
C 671.078 706.229 667.807 705.355 664.957 704.674
C 656.341 702.615 643.907 701.95 638.396 710.478
C 637.336 712.118 636.888 713.735 636.41 715.588 Z"
opacity="1" fill="rgb(130,133,67)" fill-rule="evenodd" />
<path d="
M 639.364 559.899
C 646.485 553.363 654.969 548.419 663.033 543.168
C 678.074 533.372 693.865 524.609 709.705 516.183
C 735.689 502.36 762.077 489.103 789.443 478.199
C 822.048 465.208 855.265 454.272 889.231 445.415
C 909.275 440.188 929.611 436.161 950.006 432.583
C 956.047 431.524 962.1 430.58 968.159 429.638
C 972.222 429.006 976.566 428.086 980.688 428.305
C 980.482 429.941 980.807 431.824 980.817 433.495
C 980.848 438.508 981.211 443.758 980.739 448.744
C 977.085 451.053 972.355 451.959 968.327 453.475
C 960.486 456.426 952.655 459.41 944.95 462.701
C 924.97 471.233 905.744 481.382 886.992 492.324
C 865.711 504.742 845.338 519.09 826.475 534.942
C 819.885 540.481 813.246 546.185 807.108 552.225
C 804.06 555.225 801.354 559.802 797.706 562.069
C 796.997 562.509 795.927 562.347 795.129 562.443
C 792.644 562.744 790.111 562.585 787.63 562.91
C 778.884 564.059 770.002 563.728 761.224 564.452
C 753.05 565.127 744.807 564.376 736.641 564.921
C 729.617 565.389 722.45 565 715.412 564.924
C 701.449 564.773 687.528 564.564 673.583 563.821
C 665.683 563.4 657.811 562.807 649.929 562.15
C 646.594 561.871 642.133 562.152 639.112 560.663
C 639.196 560.409 639.28 560.154 639.364 559.899 Z"
opacity="1" fill="rgb(221,137,101)" fill-rule="evenodd" />
<path d="
M 718.91 691.602
C 720.419 683.265 721.888 675.422 726.181 667.938
C 735.743 651.27 755.076 642.562 773.829 647.259
C 778.807 648.506 783.517 650.525 787.456 653.871
C 788.829 655.036 790.11 656.331 791.297 657.684
C 791.78 658.235 792.271 659.223 792.945 659.534
C 793.241 658.044 792.881 656.041 792.887 654.488
C 792.905 650.158 792.832 645.83 792.821 641.5
C 792.795 630.862 793.616 619.858 792.653 609.266
C 801.686 608.529 811.131 608.933 820.191 609.162
C 820.549 609.973 820.375 611.111 820.366 611.995
C 820.347 613.998 820.376 616.001 820.382 618.004
C 820.403 625.172 820.405 632.34 820.44 639.508
C 820.564 665.002 820.58 690.501 820.636 715.999
C 820.654 724.165 820.658 732.332 820.636 740.498
C 820.631 742.33 820.649 744.162 820.646 745.994
C 820.645 746.331 820.769 747.791 820.455 747.903
C 811.708 747.673 802.603 747.364 793.876 747.966
C 793.44 747.111 793.696 745.936 793.746 744.997
C 793.851 743 793.915 740.989 793.887 738.99
C 793.877 738.27 794.428 736.534 793.691 736.128
C 791.828 737.838 790.514 740.039 788.674 741.797
C 785.435 744.894 781.243 747.125 777.043 748.606
C 772.663 750.15 768.167 750.718 763.547 750.857
C 759.3 750.984 755.022 750.337 750.98 749.04
C 746.96 747.751 743.122 745.921 739.581 743.616
C 722.709 732.634 717.149 710.597 718.91 691.602 Z
M 746.938 692.594
C 745.244 702.513 748.053 715.371 756.23 721.83
C 765.267 728.968 779.16 728.059 786.959 719.534
C 789.891 716.329 791.562 711.7 792.271 707.473
C 794.074 696.713 793.05 683.199 784.743 675.239
C 776.689 667.521 762.651 668.459 754.881 675.983
C 750.365 680.357 747.98 686.499 746.938 692.594 Z"
opacity="1" fill="rgb(131,133,66)" fill-rule="evenodd" />
<path d="
M 740.428 376.566
C 740.796 375.361 741.37 374.107 742.202 373.154
C 748.737 365.665 761.665 373.308 758.754 382.657
C 755.88 391.883 741.29 390.633 740.097 381.051
C 739.915 379.594 739.998 377.977 740.428 376.566 Z"
opacity="1" fill="rgb(131,136,70)" fill-rule="evenodd" />
<path d="
M 839.433 693.602
C 840.02 690.202 840.303 686.802 841.198 683.446
C 843.381 675.271 847.592 667.108 853.689 661.149
C 872.058 643.193 904.863 641.414 923.092 660.731
C 934.396 672.71 938.66 692.028 935.54 707.946
C 934.562 708.659 931.723 708.161 930.501 708.16
C 926.001 708.154 921.5 708.166 917 708.173
C 900.136 708.202 883.054 707.389 866.218 708.311
C 867.74 713.106 869.728 718.132 873.38 721.748
C 880.957 729.25 893.751 730.099 903.29 726.136
C 906.449 724.824 909.516 722.858 911.979 720.483
C 912.964 719.534 913.555 718.186 914.547 717.295
C 916.014 718.068 917.309 720.001 918.536 721.154
C 921.287 723.739 924.275 726.052 927.122 728.528
C 928.005 729.296 930.746 730.983 930.78 732.126
C 930.085 733.466 928.771 734.522 927.776 735.637
C 924.321 739.514 920.174 742.718 915.596 745.15
C 902.09 752.328 885.898 752.561 871.68 747.459
C 867.373 745.913 863.085 744.146 859.344 741.457
C 844.203 730.574 837.921 711.727 839.433 693.602 Z
M 866.514 690.117
C 866.382 690.716 866.333 690.48 866.469 690.841
C 880.853 689.398 895.533 690.974 909.956 690.385
C 909.994 683.777 906.516 676.018 901.027 672.206
C 894.712 667.822 884.54 667.754 877.916 671.551
C 870.708 675.682 868.711 682.748 866.514 690.117 Z"
opacity="1" fill="rgb(131,134,67)" fill-rule="evenodd" />

</svg>